<?xml version="1.0" encoding="UTF-8" standalone="no"?>
<svg xmlns:sketch="http://www.bohemiancoding.com/sketch/ns" xmlns="http://www.w3.org/2000/svg" height="96px" width="600px" version="1.1" xmlns:xlink="http://www.w3.org/1999/xlink" viewBox="0 0 600 96">
 <g id="Page-1" fill-rule="evenodd" sketch:type="MSPage" fill="none">
  <g id="Artboard-1" sketch:type="MSArtboardGroup">
   <g id="Imported-Layers" sketch:type="MSLayerGroup">
    <path id="Fill-1" sketch:type="MSShapeGroup" fill="#DE1F26" d="m20.152 14.309c5.529 0.142 11.63-0.292 16.77 0.236 3.446 3.725-1.477 8.46-7.085 7.537 2.282 3.888 0.628 9.868-1.654 12.244-6.463 6.715-20.181-0.166-24.801 6.594-2.5171-1.936-3.1797-8.247-1.1801-11.304 1.1725 3.648 11.887 4.698 11.338-0.235-0.421-3.735-9.3616-2.399-11.573-0.706-0.306-2.337-2.3874-4.383-1.8908-6.593 0.47961-2.109 2.8392-1.372 4.0156-3.06-0.5135-1.324-2.5004 0.43-2.8355 0-0.0433-6.091 8.09-4.028 13.464-4.713 1.031 1.903 4.639 2.775 5.432 0"/>
    <path id="Fill-2" sketch:type="MSShapeGroup" fill="#DE1F26" d="m40.909 72.324c-1.244-16.347 14.53-18.774 15.767-32.92 0.924-10.474-7.38-19.176-16.241-21.552 0.142-1.644-0.504-2.493-0.943-3.554 17.412-0.668 30.597 12.801 29.429 30.317-0.463 6.945-4.047 15.628-9.418 19.182-5.668 3.752-12.572 5.236-18.594 8.527"/>
    <path id="Fill-3" sketch:type="MSShapeGroup" fill="#DE1F26" d="m39.094 73.556c-3.372 1.863-7.186 4.617-9.897 7.347-0.689 0.689-2.439 3.762-3.065 3.791-0.701 0.037-3.393-4.101-3.773-4.976-4.587-10.53 2.901-19.239 8.486-25.839 4.715-5.571 9.779-11.043 10.61-18.488 0.658-5.935-1.452-10.935-4.246-13.274 0.771-0.735 1.675-2.577 2.356-2.609 7.552 2.376 13.407 7.491 14.848 15.408 3.151 17.277-19.189 20.668-15.319 38.64"/>
    <path id="Fill-4" sketch:type="MSShapeGroup" fill="#DE1F26" d="m35.451 22.839h0.472c2.771 2.865 4.312 5.786 4.007 10.836-0.896 14.761-18.932 21.457-20.267 36.752-0.618 7.082 2.137 11.186 5.42 15.077-1.417 2.159-2.664 6.324-1.412 9.659-9.846-6.514-19.707-14.598-20.739-28.036-0.8975-11.602 6.2395-17.379 12.49-21.908 7.739-5.617 18.944-8.77 16.967-21.438 1.186-0.149 2.203-0.469 3.062-0.942"/>
    <path id="Fill-5" sketch:type="MSShapeGroup" fill="#DE1F26" d="m12.892 12.838c-0.297-1.002 0.937-1.789 1.654-2.401 0.757-0.6489 1.759-1.5612 2.838-1.9221 1.974-0.664 4.501-0.2275 6.621-0.9607 1.89-0.6524 2.899-2.7426 4.965-4.0832 4.434-2.8674 11.976-2.1655 17.265-1.2005 5.961 1.0841 9.892 3.1918 13.717 6.2444-7.845-4.4403-22.443-2.462-27.433 4.0811-6.29 0.335-13.013 0.236-19.627 0.242"/>
    <path id="Fill-6" sketch:type="MSShapeGroup" fill="#DE1F26" d="m36.178 12.738c-0.27-0.818 2.814-2.611 4.486-3.322 18.145-7.7396 36.373 10.983 37.745 26.81 1.034 11.887-6.163 17.974-12.504 23.726 2.737-5.682 5.694-12.032 4.72-20.878-1.774-16.115-16.051-28.182-34.447-26.336"/>
    <path id="Fill-7" sketch:type="MSShapeGroup" fill="#676767" d="m112.59 37.113c-2.59 0-4.79-0.268-6.6-0.805-1.82-0.537-3.52-1.199-5.12-1.985v-5.965h0.34c1.56 1.476 3.34 2.618 5.32 3.427 1.98 0.811 3.88 1.216 5.72 1.216 2.62 0 4.6-0.55 5.94-1.648s2.01-2.546 2.01-4.342c0-1.427-0.35-2.589-1.05-3.487s-1.82-1.564-3.35-1.997c-1.11-0.32-2.11-0.585-3.02-0.794-0.91-0.208-2.05-0.489-3.43-0.841-1.23-0.321-2.33-0.73-3.3-1.227-0.98-0.497-1.84-1.146-2.59-1.948-0.74-0.786-1.31-1.712-1.71-2.778-0.41-1.067-0.61-2.297-0.61-3.693 0-2.9017 1.12-5.3352 3.37-7.2997 2.26-1.9636 5.13-2.9463 8.63-2.9463 1.99 0 3.88 0.2007 5.66 0.60125 1.78 0.40115 3.43 0.97025 4.95 1.708v5.7005h-0.36c-1.13-1.0424-2.59-1.9521-4.36-2.7301-1.77-0.7775-3.63-1.1665-5.58-1.1665-2.21 0-3.99 0.5173-5.34 1.5515-1.36 1.0339-2.04 2.3929-2.04 4.0768 0 1.5236 0.4 2.7346 1.2 3.6316 0.8 0.899 1.95 1.556 3.47 1.973 1.01 0.273 2.24 0.581 3.69 0.926s2.66 0.661 3.62 0.95c2.46 0.754 4.25 1.892 5.39 3.415 1.13 1.524 1.7 3.4 1.7 5.629 0 1.395-0.28 2.774-0.85 4.137s-1.36 2.517-2.39 3.463c-1.15 1.043-2.44 1.844-3.89 2.406-1.44 0.56-3.25 0.841-5.42 0.841"/>
    <path id="Fill-8" sketch:type="MSShapeGroup" fill="#676767" d="m129.42 0.47581h5.24v4.7043h-5.24v-4.7043zm0.32 9.2152h4.6v26.947h-4.6v-26.947z"/>
    <path id="Fill-9" sketch:type="MSShapeGroup" fill="#676767" d="m162.25 36.638h-4.58v-15.289c0-1.235-0.06-2.384-0.19-3.45-0.12-1.066-0.35-1.919-0.69-2.56-0.37-0.674-0.89-1.174-1.56-1.503-0.67-0.328-1.58-0.493-2.73-0.493-1.14 0-2.32 0.301-3.53 0.902s-2.39 1.382-3.54 2.343v20.05h-4.59v-26.853l4.59 0.0004v2.9806c1.36-1.202 2.71-2.123 4.04-2.764 1.34-0.6411 2.74-0.9616 4.22-0.9616 2.69 0 4.78 0.8693 6.29 2.6086 1.52 1.739 2.27 4.259 2.27 7.56v17.429"/>
    <path id="Fill-10" sketch:type="MSShapeGroup" fill="#676767" d="m169.86 41.193c0.31 0.13 0.77 0.303 1.37 0.521s1.28 0.424 2.04 0.618c0.85 0.21 1.63 0.379 2.34 0.509 0.72 0.129 1.5 0.194 2.34 0.194 1.42 0 2.62-0.186 3.6-0.557 0.98-0.372 1.75-0.889 2.3-1.551 0.52-0.663 0.89-1.43 1.1-2.302s0.32-1.865 0.32-2.98v-2.375c-1.24 1.067-2.45 1.854-3.64 2.362-1.18 0.509-2.67 0.764-4.46 0.764-3.1 0-5.57-1.147-7.41-3.441-1.83-2.293-2.75-5.588-2.75-9.886 0-2.245 0.32-4.236 0.95-5.972s1.49-3.211 2.56-4.422c1.02-1.163 2.23-2.06 3.63-2.6897 1.4-0.6301 2.85-0.9449 4.34-0.9449 1.41 0 2.64 0.1656 3.67 0.4968s2.07 0.8038 3.11 1.4168l0.26-1.1627h4.32v23.988c0 4.587-1.01 7.956-3.02 10.104-2.02 2.148-5.1 3.222-9.24 3.222-1.33 0-2.69-0.105-4.08-0.315-1.39-0.209-2.69-0.493-3.89-0.847v-4.75h0.24zm15.41-11.678v-14.853c-1.14-0.549-2.19-0.941-3.16-1.175-0.97-0.235-1.93-0.352-2.89-0.352-2.32 0-4.15 0.848-5.48 2.544s-2 4.128-2 7.294c0 3.004 0.51 5.29 1.52 6.856 1.02 1.568 2.66 2.351 4.94 2.351 1.18 0 2.41-0.234 3.67-0.703 1.26-0.468 2.39-1.122 3.4-1.962z"/>
    <path id="Fill-11" sketch:type="MSShapeGroup" fill="#676767" d="m211.04 33.945c-0.37 0.275-0.86 0.66-1.48 1.154s-1.22 0.887-1.8 1.178c-0.8 0.421-1.57 0.745-2.32 0.972s-1.79 0.34-3.14 0.34c-1.11 0-2.16-0.21-3.16-0.632-0.99-0.42-1.87-1.012-2.62-1.773-0.73-0.745-1.3-1.665-1.74-2.758-0.43-1.094-0.65-2.248-0.65-3.462 0-1.879 0.4-3.478 1.18-4.799 0.79-1.32 2.03-2.369 3.74-3.146 1.5-0.697 3.29-1.179 5.34-1.446 2.06-0.267 4.27-0.466 6.65-0.595v-0.875c0-1.069-0.16-1.932-0.48-2.588s-0.77-1.162-1.35-1.518c-0.58-0.373-1.29-0.62-2.12-0.741-0.84-0.122-1.69-0.183-2.58-0.183-1.04 0-2.27 0.159-3.68 0.474-1.42 0.316-2.83 0.774-4.24 1.373h-0.27v-4.641c0.84-0.242 2.03-0.5101 3.59-0.8015 1.56-0.2918 3.1-0.4371 4.63-0.4371 1.84 0 3.4 0.1453 4.67 0.4371 1.27 0.2914 2.41 0.8185 3.42 1.5795 0.98 0.745 1.71 1.709 2.19 2.891 0.48 1.183 0.72 2.624 0.72 4.325v18.563h-4.5v-2.891zm0-3.791v-7.532c-1.08 0.097-2.44 0.231-4.08 0.401-1.65 0.17-2.98 0.41-3.99 0.717-1.2 0.373-2.2 0.944-2.99 1.713-0.78 0.769-1.18 1.843-1.18 3.219 0 1.555 0.44 2.73 1.3 3.523 0.87 0.794 2.14 1.191 3.81 1.191 1.43 0 2.72-0.312 3.88-0.935 1.15-0.624 2.24-1.389 3.25-2.297z"/>
    <path id="Fill-12" sketch:type="MSShapeGroup" fill="#676767" d="m245.04 22.534c0 4.481-1.08 8.052-3.25 10.711-2.17 2.658-4.91 3.987-8.23 3.987-1.35 0-2.54-0.153-3.58-0.458s-2.1-0.778-3.19-1.421v11.277h-4.59v-36.843l4.59 0.0001v2.8189c1.13-1.012 2.4-1.859 3.79-2.542 1.39-0.6821 2.9-1.0236 4.54-1.0236 3.12 0 5.56 1.2206 7.3 3.6626 1.75 2.442 2.62 5.719 2.62 9.831zm-4.73 0.506c0-3.068-0.49-5.45-1.48-7.144-0.99-1.695-2.6-2.543-4.83-2.543-1.3 0-2.55 0.286-3.76 0.856s-2.36 1.305-3.45 2.204v15.253c1.2 0.578 2.23 0.972 3.08 1.181s1.83 0.313 2.94 0.313c2.37 0 4.21-0.859 5.53-2.579 1.32-1.718 1.97-4.232 1.97-7.541z"/>
    <path id="Fill-13" sketch:type="MSShapeGroup" fill="#676767" d="m271.69 23.327c0 4.552-1.1 8.068-3.31 10.545-2.2 2.479-5.14 3.717-8.8 3.717-3.78 0-6.75-1.279-8.91-3.838-2.17-2.558-3.25-6.033-3.25-10.424 0-4.52 1.12-8.031 3.35-10.533 2.22-2.502 5.16-3.7536 8.81-3.7536 3.66 0 6.6 1.2466 8.8 3.7406 2.21 2.494 3.31 6.01 3.31 10.546zm-4.72 0c0-3.503-0.64-6.106-1.92-7.809s-3.1-2.555-5.47-2.555c-2.38 0-4.22 0.852-5.51 2.555s-1.93 4.306-1.93 7.809c0 3.39 0.64 5.961 1.93 7.712 1.29 1.752 3.13 2.627 5.51 2.627 2.35 0 4.17-0.859 5.46-2.578 1.29-1.72 1.93-4.307 1.93-7.761z"/>
    <path id="Fill-14" sketch:type="MSShapeGroup" fill="#676767" d="m290.72 14.421h-0.24c-0.34-0.097-0.7-0.158-1.07-0.182-0.38-0.024-0.83-0.037-1.36-0.037-1.23 0-2.44 0.268-3.65 0.802-1.2 0.534-2.34 1.327-3.42 2.379v19.255h-4.53v-27.122l4.53 0.0003v4.0307c1.66-1.473 3.1-2.513 4.33-3.12s2.42-0.9107 3.58-0.9107c0.47 0 0.81 0.0122 1.05 0.0366 0.23 0.0239 0.49 0.0605 0.78 0.1091v4.759"/>
    <path id="Fill-15" sketch:type="MSShapeGroup" fill="#676767" d="m305.73 37.589c-4.3 0-7.64-1.219-10.02-3.659-2.37-2.44-3.56-5.906-3.56-10.396 0-4.426 1.15-7.948 3.45-10.567 2.31-2.617 5.32-3.9266 9.04-3.9266 1.67 0 3.16 0.2428 4.45 0.7292 1.28 0.4864 2.41 1.2484 3.38 2.2864 0.96 1.038 1.7 2.306 2.22 3.806 0.52 1.499 0.77 3.335 0.77 5.507v2.481h-18.7c0 3.161 0.79 5.577 2.37 7.247s3.76 2.504 6.55 2.504c1 0 1.98-0.113 2.93-0.34 0.96-0.227 1.83-0.519 2.6-0.875 0.82-0.373 1.52-0.734 2.08-1.083 0.56-0.348 1.03-0.677 1.4-0.985h0.27v4.986c-0.53 0.21-1.2 0.474-1.98 0.79-0.79 0.316-1.5 0.563-2.13 0.742-0.89 0.243-1.69 0.429-2.4 0.559-0.72 0.129-1.63 0.194-2.72 0.194zm5.31-17.241c-0.03-1.232-0.17-2.294-0.43-3.186-0.26-0.891-0.63-1.645-1.11-2.261-0.54-0.681-1.22-1.2-2.05-1.556-0.82-0.357-1.85-0.535-3.08-0.535-1.2 0-2.23 0.182-3.08 0.547-0.84 0.365-1.61 0.895-2.3 1.592-0.68 0.714-1.2 1.505-1.55 2.372s-0.58 1.876-0.68 3.027h14.28z"/>
    <path id="Fill-16" sketch:type="MSShapeGroup" fill="#676767" d="m110.39 77.557h-9.99v-2.623h3.28v-20.447h-3.28v-2.623h9.99v2.623h-3.29v20.447h3.29v2.623"/>
    <path id="Fill-17" sketch:type="MSShapeGroup" fill="#676767" d="m129.42 78.033h-3.26v-11.071c0-0.893-0.04-1.726-0.13-2.498-0.09-0.771-0.25-1.389-0.49-1.854-0.27-0.488-0.64-0.85-1.11-1.088-0.48-0.238-1.12-0.356-1.95-0.356-0.8 0-1.64 0.217-2.5 0.652s-1.7 1.001-2.52 1.697v14.518h-3.26v-19.444h3.26v2.159c0.97-0.871 1.93-1.538 2.87-2.003 0.95-0.464 1.95-0.696 3-0.696 1.91 0 3.4 0.63 4.48 1.889 1.07 1.259 1.61 3.084 1.61 5.475v12.62"/>
    <path id="Fill-18" sketch:type="MSShapeGroup" fill="#676767" d="m140.1 78.033c-1.77 0-3.15-0.503-4.14-1.511-1-1.007-1.49-2.599-1.49-4.776v-10.691h-2.19v-2.695h2.19v-5.545h3.25v5.545h5.98v2.695h-5.98v9.171c0 0.979 0.02 1.734 0.05 2.263 0.03 0.53 0.17 1.025 0.4 1.486 0.19 0.403 0.51 0.705 0.95 0.906 0.43 0.202 1.03 0.303 1.78 0.303 0.53 0 1.04-0.078 1.53-0.234 0.5-0.155 0.86-0.285 1.08-0.388h0.19v2.919c-0.62 0.172-1.23 0.308-1.86 0.406s-1.21 0.146-1.74 0.146"/>
    <path id="Fill-19" sketch:type="MSShapeGroup" fill="#676767" d="m154.35 78.509c-3.08 0-5.46-0.874-7.16-2.623-1.69-1.748-2.54-4.232-2.54-7.45 0-3.172 0.82-5.696 2.46-7.572 1.65-1.876 3.8-2.815 6.46-2.815 1.2 0 2.25 0.174 3.17 0.523 0.92 0.348 1.73 0.895 2.42 1.638 0.69 0.744 1.22 1.653 1.59 2.728s0.55 2.39 0.55 3.947v1.778h-13.36c0 2.265 0.57 3.996 1.69 5.193 1.13 1.197 2.69 1.795 4.68 1.795 0.71 0 1.41-0.081 2.1-0.244 0.68-0.163 1.3-0.372 1.85-0.627 0.59-0.267 1.08-0.526 1.49-0.776 0.4-0.25 0.73-0.485 1-0.706h0.19v3.573c-0.38 0.151-0.85 0.34-1.42 0.566-0.56 0.227-1.07 0.404-1.52 0.532-0.63 0.174-1.2 0.308-1.71 0.4-0.51 0.093-1.16 0.14-1.94 0.14zm3.79-12.356c-0.02-0.883-0.12-1.644-0.31-2.283-0.18-0.639-0.45-1.179-0.79-1.621-0.38-0.488-0.87-0.859-1.46-1.115s-1.33-0.383-2.2-0.383c-0.86 0-1.6 0.13-2.2 0.392-0.61 0.261-1.15 0.642-1.65 1.141-0.48 0.512-0.85 1.078-1.1 1.699-0.26 0.622-0.42 1.345-0.49 2.17h10.2z"/>
    <path id="Fill-20" sketch:type="MSShapeGroup" fill="#676767" d="m165.7 80.958c0.22 0.092 0.54 0.216 0.97 0.371 0.42 0.156 0.91 0.302 1.45 0.44 0.6 0.15 1.15 0.271 1.65 0.363 0.51 0.092 1.06 0.138 1.66 0.138 1 0 1.85-0.132 2.55-0.397 0.69-0.265 1.24-0.633 1.63-1.105 0.37-0.472 0.63-1.018 0.78-1.64 0.15-0.621 0.22-1.329 0.22-2.123v-1.692c-0.87 0.759-1.73 1.321-2.57 1.683-0.84 0.363-1.89 0.544-3.16 0.544-2.2 0-3.95-0.817-5.25-2.451-1.3-1.635-1.95-3.983-1.95-7.044 0-1.6 0.22-3.018 0.67-4.256 0.45-1.236 1.06-2.287 1.82-3.15 0.72-0.829 1.58-1.467 2.57-1.916s2.01-0.674 3.07-0.674c1 0 1.87 0.119 2.6 0.354 0.73 0.237 1.46 0.573 2.2 1.01l0.19-0.828h3.06v17.09c0 3.269-0.72 5.669-2.14 7.199-1.43 1.531-3.61 2.296-6.55 2.296-0.94 0-1.91-0.074-2.89-0.224s-1.9-0.351-2.75-0.604v-3.384h0.17zm10.91-8.321v-10.583c-0.8-0.391-1.55-0.67-2.23-0.837-0.69-0.167-1.37-0.25-2.05-0.25-1.65 0-2.94 0.604-3.89 1.812-0.94 1.209-1.41 2.941-1.41 5.197 0 2.141 0.36 3.769 1.08 4.885 0.72 1.117 1.88 1.675 3.49 1.675 0.84 0 1.71-0.167 2.6-0.501 0.89-0.333 1.7-0.799 2.41-1.398z"/>
    <path id="Fill-21" sketch:type="MSShapeGroup" fill="#676767" d="m195.08 62.053h-0.17c-0.25-0.07-0.51-0.114-0.79-0.131s-0.61-0.027-1-0.027c-0.9 0-1.79 0.193-2.67 0.577s-1.72 0.955-2.51 1.712v13.849h-3.32v-19.508h3.32v2.899c1.21-1.059 2.27-1.808 3.17-2.244 0.91-0.437 1.78-0.655 2.63-0.655 0.34 0 0.6 0.009 0.77 0.026 0.17 0.018 0.36 0.044 0.57 0.079v3.423"/>
    <path id="Fill-22" sketch:type="MSShapeGroup" fill="#676767" d="m197.46 51.864h3.81v3.404h-3.81v-3.404zm0.23 6.669h3.35v19.5h-3.35v-19.5z"/>
    <path id="Fill-23" sketch:type="MSShapeGroup" fill="#676767" d="m211.47 78.033c-1.77 0-3.15-0.503-4.14-1.511-0.99-1.007-1.49-2.599-1.49-4.776v-10.691h-2.19v-2.695h2.19v-5.545h3.25v5.545h5.98v2.695h-5.98v9.171c0 0.979 0.02 1.734 0.05 2.263 0.04 0.53 0.17 1.025 0.4 1.486 0.19 0.403 0.51 0.705 0.95 0.906 0.44 0.202 1.03 0.303 1.78 0.303 0.53 0 1.04-0.078 1.54-0.234 0.49-0.155 0.85-0.285 1.07-0.388h0.19v2.919c-0.61 0.172-1.23 0.308-1.86 0.406s-1.21 0.146-1.74 0.146"/>
    <path id="Fill-24" sketch:type="MSShapeGroup" fill="#676767" d="m234.58 58.525l-10.5 26.645h-3.51l3.49-8.12-7.09-18.525h3.55l5.32 14.412 5.31-14.412h3.43"/>
    <path id="Fill-25" sketch:type="MSShapeGroup" fill="#676767" d="m290.66 78.033c-1.88 0-3.48-0.193-4.79-0.578-1.32-0.386-2.55-0.861-3.71-1.425v-4.283h0.24c1.14 1.06 2.42 1.88 3.86 2.461 1.43 0.581 2.82 0.872 4.15 0.872 1.9 0 3.34-0.394 4.31-1.183 0.98-0.788 1.46-1.827 1.46-3.116 0-1.025-0.25-1.86-0.76-2.505-0.51-0.644-1.32-1.122-2.44-1.433-0.8-0.23-1.52-0.42-2.19-0.57-0.66-0.149-1.48-0.35-2.48-0.604-0.89-0.23-1.69-0.524-2.4-0.881-0.71-0.356-1.33-0.823-1.88-1.398-0.53-0.565-0.94-1.229-1.24-1.995-0.29-0.766-0.44-1.649-0.44-2.651 0-2.083 0.82-3.83 2.45-5.24 1.63-1.411 3.72-2.116 6.26-2.116 1.44 0 2.81 0.144 4.11 0.432 1.29 0.288 2.48 0.696 3.58 1.226v4.093h-0.26c-0.82-0.749-1.87-1.402-3.16-1.961-1.29-0.558-2.64-0.837-4.05-0.837-1.6 0-2.89 0.371-3.87 1.114-0.99 0.742-1.48 1.718-1.48 2.927 0 1.094 0.29 1.963 0.87 2.607 0.58 0.645 1.42 1.117 2.52 1.416 0.73 0.196 1.62 0.418 2.67 0.665 1.06 0.248 1.93 0.475 2.63 0.682 1.78 0.541 3.09 1.359 3.91 2.452 0.82 1.094 1.23 2.441 1.23 4.041 0 1.001-0.2 1.992-0.62 2.97-0.41 0.979-0.98 1.808-1.72 2.487-0.84 0.748-1.78 1.324-2.83 1.727-1.05 0.402-2.36 0.604-3.93 0.604"/>
    <path id="Fill-26" sketch:type="MSShapeGroup" fill="#676767" d="m311.36 78.509c-3.07 0-5.45-0.874-7.15-2.623-1.7-1.748-2.54-4.232-2.54-7.45 0-3.172 0.82-5.696 2.46-7.572 1.65-1.876 3.8-2.815 6.46-2.815 1.19 0 2.25 0.174 3.17 0.523 0.92 0.348 1.73 0.895 2.42 1.638 0.69 0.744 1.22 1.653 1.59 2.728 0.36 1.075 0.55 2.39 0.55 3.947v1.778h-13.36c0 2.265 0.56 3.996 1.69 5.193s2.69 1.795 4.68 1.795c0.71 0 1.41-0.081 2.1-0.244 0.68-0.163 1.3-0.372 1.85-0.627 0.59-0.267 1.08-0.526 1.49-0.776 0.4-0.25 0.73-0.485 1-0.706h0.19v3.573c-0.38 0.151-0.86 0.34-1.42 0.566-0.56 0.227-1.07 0.404-1.52 0.532-0.63 0.174-1.2 0.308-1.71 0.4-0.52 0.093-1.16 0.14-1.95 0.14zm3.8-12.356c-0.02-0.883-0.13-1.644-0.31-2.283s-0.45-1.179-0.79-1.621c-0.38-0.488-0.87-0.859-1.46-1.115s-1.33-0.383-2.2-0.383-1.6 0.13-2.2 0.392c-0.61 0.261-1.16 0.642-1.65 1.141-0.48 0.512-0.85 1.078-1.11 1.699-0.25 0.622-0.41 1.345-0.48 2.17h10.2z"/>
    <path id="Fill-27" sketch:type="MSShapeGroup" fill="#676767" d="m332.12 62.053h-0.18c-0.25-0.07-0.51-0.114-0.79-0.131-0.27-0.017-0.61-0.027-1-0.027-0.89 0-1.78 0.193-2.67 0.577-0.88 0.384-1.72 0.955-2.51 1.712v13.849h-3.32v-19.508h3.32v2.899c1.22-1.059 2.28-1.808 3.18-2.244 0.9-0.437 1.77-0.655 2.62-0.655 0.35 0 0.6 0.009 0.77 0.026 0.17 0.018 0.37 0.044 0.58 0.079v3.423"/>
    <path id="Fill-28" sketch:type="MSShapeGroup" fill="#676767" d="m351.63 58.525l-7.36 19.508h-2.95l-7.3-19.508h3.55l5.34 15.055 5.29-15.055h3.43"/>
    <path id="Fill-29" sketch:type="MSShapeGroup" fill="#676767" d="m354 51.864h3.81v3.404h-3.81v-3.404zm0.24 6.669h3.34v19.5h-3.34v-19.5z"/>
    <path id="Fill-30" sketch:type="MSShapeGroup" fill="#676767" d="m370.17 78.509c-1.33 0-2.55-0.207-3.65-0.622-1.11-0.415-2.07-1.042-2.86-1.883-0.8-0.841-1.42-1.901-1.86-3.179-0.44-1.279-0.66-2.782-0.66-4.511 0-1.717 0.23-3.2 0.69-4.449 0.45-1.25 1.06-2.301 1.83-3.153 0.76-0.853 1.71-1.51 2.85-1.971 1.13-0.461 2.36-0.692 3.66-0.692 1.07 0 2.09 0.152 3.08 0.455 0.99 0.304 1.87 0.654 2.64 1.052v3.695h-0.19c-0.23-0.198-0.53-0.426-0.89-0.682-0.37-0.258-0.81-0.52-1.33-0.789-0.45-0.233-0.98-0.438-1.59-0.613s-1.2-0.263-1.77-0.263c-1.69 0-3.04 0.646-4.06 1.936-1.03 1.291-1.54 3.115-1.54 5.474 0 2.312 0.5 4.114 1.48 5.404 0.99 1.29 2.36 1.936 4.12 1.936 1.06 0 2.07-0.222 3.03-0.666s1.81-1.016 2.55-1.717h0.19v3.697c-0.32 0.151-0.73 0.336-1.21 0.551-0.49 0.217-0.93 0.377-1.32 0.482-0.55 0.163-1.05 0.289-1.49 0.377-0.44 0.087-1 0.131-1.7 0.131"/>
    <path id="Fill-31" sketch:type="MSShapeGroup" fill="#676767" d="m387.02 78.509c-3.07 0-5.46-0.874-7.15-2.623-1.7-1.748-2.55-4.232-2.55-7.45 0-3.172 0.82-5.696 2.47-7.572 1.64-1.876 3.79-2.815 6.45-2.815 1.2 0 2.26 0.174 3.18 0.523 0.92 0.348 1.72 0.895 2.41 1.638 0.69 0.744 1.22 1.653 1.59 2.728s0.55 2.39 0.55 3.947v1.778h-13.35c0 2.265 0.56 3.996 1.69 5.193 1.12 1.197 2.68 1.795 4.67 1.795 0.72 0 1.42-0.081 2.1-0.244 0.69-0.163 1.3-0.372 1.86-0.627 0.58-0.267 1.08-0.526 1.48-0.776s0.74-0.485 1-0.706h0.19v3.573c-0.38 0.151-0.85 0.34-1.41 0.566-0.57 0.227-1.07 0.404-1.52 0.532-0.64 0.174-1.21 0.308-1.72 0.4-0.51 0.093-1.16 0.14-1.94 0.14zm3.79-12.356c-0.02-0.883-0.12-1.644-0.31-2.283-0.18-0.639-0.44-1.179-0.79-1.621-0.38-0.488-0.87-0.859-1.46-1.115s-1.32-0.383-2.2-0.383c-0.86 0-1.59 0.13-2.2 0.392-0.6 0.261-1.15 0.642-1.65 1.141-0.48 0.512-0.85 1.078-1.1 1.699-0.25 0.622-0.42 1.345-0.48 2.17h10.19z"/>
    <path id="Fill-32" sketch:type="MSShapeGroup" fill="#676767" d="m440.6 77.557v-25.693h16.18v3.037h-12.74v7.04h11.87v3.037h-11.87v9.542h12.74v3.037h-16.18"/>
    <path id="Fill-33" sketch:type="MSShapeGroup" fill="#676767" d="m475.34 78.033h-3.98l-4.67-7.37-4.81 7.37h-3.67l6.68-9.675-6.61-9.833h3.98l4.63 7.3 4.76-7.3h3.69l-6.65 9.606 6.65 9.902"/>
    <path id="Fill-34" sketch:type="MSShapeGroup" fill="#676767" d="m485.32 78.509c-1.33 0-2.55-0.207-3.66-0.622s-2.06-1.042-2.86-1.883-1.41-1.901-1.85-3.179c-0.44-1.279-0.66-2.782-0.66-4.511 0-1.717 0.23-3.2 0.68-4.449 0.46-1.25 1.07-2.301 1.83-3.153 0.76-0.853 1.71-1.51 2.85-1.971s2.36-0.692 3.67-0.692c1.06 0 2.09 0.152 3.08 0.455 0.98 0.304 1.86 0.654 2.64 1.052v3.695h-0.19c-0.23-0.198-0.53-0.426-0.89-0.682-0.37-0.258-0.81-0.52-1.33-0.789-0.45-0.233-0.98-0.438-1.6-0.613-0.61-0.175-1.2-0.263-1.76-0.263-1.69 0-3.04 0.646-4.07 1.936-1.02 1.291-1.53 3.115-1.53 5.474 0 2.312 0.49 4.114 1.48 5.404s2.36 1.936 4.12 1.936c1.06 0 2.07-0.222 3.03-0.666s1.81-1.016 2.55-1.717h0.19v3.697c-0.32 0.151-0.73 0.336-1.21 0.551-0.49 0.217-0.93 0.377-1.32 0.482-0.56 0.163-1.05 0.289-1.49 0.377-0.44 0.087-1.01 0.131-1.7 0.131"/>
    <path id="Fill-35" sketch:type="MSShapeGroup" fill="#676767" d="m502.64 78.509c-3.07 0-5.46-0.874-7.15-2.623-1.7-1.748-2.55-4.232-2.55-7.45 0-3.172 0.82-5.696 2.47-7.572s3.8-2.815 6.45-2.815c1.2 0 2.26 0.174 3.18 0.523 0.92 0.348 1.73 0.895 2.42 1.638 0.69 0.744 1.21 1.653 1.58 2.728s0.56 2.39 0.56 3.947v1.778h-13.36c0 2.265 0.56 3.996 1.69 5.193s2.69 1.795 4.68 1.795c0.71 0 1.41-0.081 2.09-0.244 0.69-0.163 1.31-0.372 1.86-0.627 0.58-0.267 1.08-0.526 1.48-0.776s0.74-0.485 1-0.706h0.19v3.573c-0.38 0.151-0.85 0.34-1.41 0.566-0.57 0.227-1.07 0.404-1.52 0.532-0.63 0.174-1.21 0.308-1.72 0.4-0.51 0.093-1.16 0.14-1.94 0.14zm3.8-12.356c-0.03-0.883-0.13-1.644-0.31-2.283-0.19-0.639-0.45-1.179-0.8-1.621-0.38-0.488-0.86-0.859-1.46-1.115-0.59-0.256-1.32-0.383-2.2-0.383-0.86 0-1.59 0.13-2.2 0.392-0.6 0.261-1.15 0.642-1.64 1.141-0.49 0.512-0.86 1.078-1.11 1.699-0.25 0.622-0.41 1.345-0.48 2.17h10.2z"/>
    <path id="Fill-36" sketch:type="MSShapeGroup" fill="#676767" d="m512.93 50.912h3.33v27.121h-3.33v-27.121z"/>
    <path id="Fill-37" sketch:type="MSShapeGroup" fill="#676767" d="m521.02 50.912h3.33v27.121h-3.33v-27.121z"/>
    <path id="Fill-38" sketch:type="MSShapeGroup" fill="#676767" d="m537.38 78.509c-3.08 0-5.46-0.874-7.16-2.623-1.7-1.748-2.54-4.232-2.54-7.45 0-3.172 0.82-5.696 2.46-7.572 1.65-1.876 3.8-2.815 6.46-2.815 1.2 0 2.25 0.174 3.17 0.523 0.92 0.348 1.73 0.895 2.42 1.638 0.69 0.744 1.22 1.653 1.59 2.728s0.55 2.39 0.55 3.947v1.778h-13.36c0 2.265 0.57 3.996 1.69 5.193 1.13 1.197 2.69 1.795 4.68 1.795 0.71 0 1.41-0.081 2.1-0.244 0.68-0.163 1.3-0.372 1.85-0.627 0.59-0.267 1.08-0.526 1.49-0.776 0.4-0.25 0.73-0.485 1-0.706h0.19v3.573c-0.38 0.151-0.85 0.34-1.42 0.566-0.56 0.227-1.07 0.404-1.52 0.532-0.63 0.174-1.2 0.308-1.71 0.4-0.52 0.093-1.16 0.14-1.94 0.14zm3.79-12.356c-0.02-0.883-0.13-1.644-0.31-2.283s-0.45-1.179-0.79-1.621c-0.38-0.488-0.87-0.859-1.46-1.115s-1.33-0.383-2.2-0.383c-0.86 0-1.6 0.13-2.2 0.392-0.61 0.261-1.15 0.642-1.65 1.141-0.48 0.512-0.85 1.078-1.1 1.699-0.26 0.622-0.42 1.345-0.49 2.17h10.2z"/>
    <path id="Fill-39" sketch:type="MSShapeGroup" fill="#676767" d="m563.36 78.033h-3.26v-11.071c0-0.893-0.04-1.726-0.13-2.498-0.08-0.771-0.25-1.389-0.49-1.854-0.27-0.488-0.64-0.85-1.11-1.088-0.48-0.238-1.12-0.356-1.94-0.356-0.81 0-1.65 0.217-2.51 0.652s-1.7 1.001-2.52 1.697v14.518h-3.26v-19.444h3.26v2.159c0.97-0.871 1.93-1.538 2.88-2.003 0.94-0.464 1.94-0.696 3-0.696 1.9 0 3.39 0.63 4.47 1.889 1.07 1.259 1.61 3.084 1.61 5.475v12.62"/>
    <path id="Fill-40" sketch:type="MSShapeGroup" fill="#676767" d="m575.72 78.509c-1.33 0-2.54-0.207-3.65-0.622s-2.07-1.042-2.86-1.883c-0.8-0.841-1.42-1.901-1.86-3.179-0.44-1.279-0.66-2.782-0.66-4.511 0-1.717 0.23-3.2 0.69-4.449 0.45-1.25 1.06-2.301 1.83-3.153 0.76-0.853 1.71-1.51 2.85-1.971s2.36-0.692 3.66-0.692c1.07 0 2.09 0.152 3.08 0.455 0.99 0.304 1.87 0.654 2.64 1.052v3.695h-0.19c-0.23-0.198-0.53-0.426-0.89-0.682-0.36-0.258-0.81-0.52-1.33-0.789-0.45-0.233-0.98-0.438-1.59-0.613s-1.2-0.263-1.77-0.263c-1.69 0-3.04 0.646-4.06 1.936-1.03 1.291-1.54 3.115-1.54 5.474 0 2.312 0.5 4.114 1.48 5.404 0.99 1.29 2.36 1.936 4.12 1.936 1.06 0 2.08-0.222 3.03-0.666 0.96-0.444 1.81-1.016 2.55-1.717h0.19v3.697c-0.32 0.151-0.72 0.336-1.21 0.551-0.49 0.217-0.92 0.377-1.32 0.482-0.55 0.163-1.05 0.289-1.49 0.377-0.44 0.087-1 0.131-1.7 0.131"/>
    <path id="Fill-41" sketch:type="MSShapeGroup" fill="#676767" d="m592.57 78.509c-3.07 0-5.46-0.874-7.15-2.623-1.7-1.748-2.55-4.232-2.55-7.45 0-3.172 0.82-5.696 2.47-7.572 1.64-1.876 3.8-2.815 6.45-2.815 1.2 0 2.26 0.174 3.18 0.523 0.92 0.348 1.72 0.895 2.41 1.638 0.69 0.744 1.22 1.653 1.59 2.728s0.55 2.39 0.55 3.947v1.778h-13.35c0 2.265 0.56 3.996 1.69 5.193s2.68 1.795 4.67 1.795c0.72 0 1.42-0.081 2.1-0.244 0.69-0.163 1.3-0.372 1.86-0.627 0.58-0.267 1.08-0.526 1.48-0.776s0.74-0.485 1-0.706h0.19v3.573c-0.38 0.151-0.85 0.34-1.41 0.566-0.57 0.227-1.07 0.404-1.52 0.532-0.63 0.174-1.21 0.308-1.72 0.4-0.51 0.093-1.16 0.14-1.94 0.14zm3.8-12.356c-0.03-0.883-0.13-1.644-0.31-2.283-0.19-0.639-0.45-1.179-0.8-1.621-0.38-0.488-0.86-0.859-1.46-1.115-0.59-0.256-1.32-0.383-2.2-0.383-0.86 0-1.59 0.13-2.2 0.392-0.6 0.261-1.15 0.642-1.65 1.141-0.48 0.512-0.85 1.078-1.1 1.699-0.25 0.622-0.41 1.345-0.48 2.17h10.2z"/>
    <path id="Fill-42" sketch:type="MSShapeGroup" fill="#DD1F26" d="m351.1 37.589c-2.54 0-4.86-0.389-6.97-1.167-2.11-0.779-3.92-1.963-5.43-3.553-1.51-1.606-2.67-3.592-3.47-5.961-0.81-2.367-1.21-5.092-1.21-8.174 0-2.92 0.41-5.535 1.22-7.846 0.81-2.3115 1.97-4.2863 3.49-5.9247 1.46-1.5893 3.26-2.8139 5.4-3.6738 2.14-0.85956 4.48-1.2895 7.02-1.2895 1.21 0 2.36 0.089404 3.47 0.26764 1.11 0.17853 2.18 0.42197 3.19 0.73004 0.8 0.24312 1.7 0.58002 2.69 1.0093 0.99 0.43 1.79 0.7993 2.4 1.1073v5.8147h-0.41c-0.6-0.5353-1.21-1.0421-1.85-1.5204-0.63-0.4784-1.53-0.9934-2.69-1.5452-0.96-0.4866-2.07-0.8918-3.33-1.2164-1.25-0.3243-2.6-0.4866-4.05-0.4866-3.46 0-6.25 1.3137-8.38 3.9415-2.13 2.6271-3.2 6.1231-3.2 10.486 0 2.433 0.28 4.558 0.85 6.374 0.56 1.817 1.37 3.358 2.43 4.623 1.03 1.249 2.27 2.202 3.73 2.858 1.45 0.658 3.09 0.986 4.91 0.986 1.35 0 2.69-0.098 4.03-0.292 1.33-0.195 2.46-0.487 3.38-0.876v-9.367h-8.3v-4.233h13.03v15.814c-0.62 0.276-1.43 0.625-2.45 1.046-1.03 0.422-1.98 0.754-2.86 0.998-1.18 0.357-2.24 0.624-3.19 0.803-0.95 0.178-2.1 0.267-3.45 0.267"/>
    <path id="Fill-43" sketch:type="MSShapeGroup" fill="#DD1F26" d="m391.12 23.327c0 4.552-1.1 8.068-3.31 10.545-2.2 2.479-5.14 3.717-8.8 3.717-3.78 0-6.75-1.279-8.91-3.838-2.17-2.558-3.25-6.033-3.25-10.424 0-4.52 1.12-8.031 3.35-10.533 2.22-2.502 5.16-3.7536 8.81-3.7536 3.66 0 6.6 1.2466 8.8 3.7406 2.21 2.494 3.31 6.01 3.31 10.546zm-4.72 0c0-3.503-0.64-6.106-1.92-7.809s-3.1-2.555-5.47-2.555c-2.38 0-4.22 0.852-5.51 2.555s-1.93 4.306-1.93 7.809c0 3.39 0.64 5.961 1.93 7.712 1.29 1.752 3.13 2.627 5.51 2.627 2.35 0 4.17-0.859 5.46-2.578 1.29-1.72 1.93-4.307 1.93-7.761z"/>
    <path id="Fill-44" sketch:type="MSShapeGroup" fill="#DD1F26" d="m416.34 9.5163l-10.14 27.122h-4.07l-10.06-27.122 4.89 0.0003 7.36 20.93 7.3-20.93 4.72 0.0003"/>
    <path id="Fill-45" sketch:type="MSShapeGroup" fill="#DD1F26" d="m431.34 37.589c-4.3 0-7.64-1.219-10.01-3.659-2.38-2.44-3.57-5.906-3.57-10.396 0-4.426 1.16-7.948 3.46-10.567 2.3-2.617 5.31-3.9266 9.03-3.9266 1.68 0 3.16 0.2428 4.45 0.7292s2.42 1.2484 3.38 2.2864c0.97 1.038 1.71 2.306 2.23 3.806 0.51 1.499 0.77 3.335 0.77 5.507v2.481h-18.7c0 3.161 0.79 5.577 2.37 7.247 1.57 1.67 3.76 2.504 6.54 2.504 1 0 1.98-0.113 2.94-0.34s1.82-0.519 2.6-0.875c0.82-0.373 1.51-0.734 2.07-1.083 0.57-0.348 1.03-0.677 1.41-0.985h0.26v4.986c-0.53 0.21-1.19 0.474-1.98 0.79s-1.5 0.563-2.13 0.742c-0.88 0.243-1.68 0.429-2.4 0.559-0.72 0.129-1.62 0.194-2.72 0.194zm5.32-17.241c-0.04-1.232-0.18-2.294-0.44-3.186-0.26-0.891-0.63-1.645-1.11-2.261-0.53-0.681-1.21-1.2-2.04-1.556-0.83-0.357-1.86-0.535-3.08-0.535-1.21 0-2.24 0.182-3.08 0.547-0.85 0.365-1.62 0.895-2.31 1.592-0.68 0.714-1.19 1.505-1.55 2.372-0.35 0.867-0.57 1.876-0.67 3.027h14.28z"/>
    <path id="Fill-46" sketch:type="MSShapeGroup" fill="#DD1F26" d="m459.64 14.421h-0.25c-0.33-0.097-0.69-0.158-1.07-0.182s-0.83-0.037-1.36-0.037c-1.22 0-2.44 0.268-3.64 0.802-1.21 0.534-2.35 1.327-3.43 2.379v19.255h-4.53v-27.122l4.53 0.0003v4.0307c1.66-1.473 3.1-2.513 4.33-3.12s2.43-0.9107 3.58-0.9107c0.47 0 0.82 0.0122 1.05 0.0366 0.23 0.0239 0.5 0.0605 0.79 0.1091v4.759"/>
    <path id="Fill-47" sketch:type="MSShapeGroup" fill="#DD1F26" d="m484.85 36.638h-4.58v-15.289c0-1.235-0.06-2.384-0.18-3.45-0.13-1.066-0.36-1.919-0.7-2.56-0.37-0.674-0.89-1.174-1.56-1.503-0.67-0.328-1.58-0.493-2.73-0.493-1.14 0-2.31 0.301-3.53 0.902-1.21 0.601-2.39 1.382-3.54 2.343v20.05h-4.59v-26.853l4.59 0.0004v2.9806c1.36-1.202 2.71-2.123 4.04-2.764 1.34-0.6411 2.74-0.9616 4.22-0.9616 2.69 0 4.78 0.8693 6.3 2.6086 1.51 1.739 2.26 4.259 2.26 7.56v17.429"/>
    <path id="Fill-48" sketch:type="MSShapeGroup" fill="#DD1F26" d="m521.7 36.638v-15.53c0-1.234-0.05-2.376-0.14-3.425-0.1-1.05-0.3-1.872-0.61-2.465-0.32-0.641-0.78-1.113-1.38-1.418-0.59-0.304-1.4-0.457-2.41-0.457-0.94 0-1.94 0.285-3.01 0.854-1.08 0.569-2.19 1.39-3.33 2.464 0.02 0.273 0.04 0.597 0.06 0.973 0.02 0.377 0.04 0.822 0.04 1.335v17.669h-4.55v-15.53c0-1.234-0.05-2.376-0.14-3.425-0.1-1.05-0.3-1.872-0.61-2.465-0.32-0.641-0.78-1.113-1.38-1.418-0.59-0.304-1.4-0.457-2.42-0.457-0.98 0-2.01 0.305-3.09 0.914s-2.13 1.386-3.14 2.331v20.05h-4.55v-26.853l4.55 0.0004v2.9806c1.19-1.185 2.37-2.103 3.54-2.752 1.17-0.6495 2.45-0.9736 3.86-0.9736 1.59 0 3.01 0.3604 4.24 1.0816 1.23 0.721 2.17 1.908 2.82 3.558 1.37-1.522 2.7-2.676 4.01-3.462 1.31-0.7848 2.72-1.1776 4.26-1.1776 1.16 0 2.21 0.1801 3.16 0.5408 0.96 0.3603 1.79 0.9418 2.5 1.7428 0.72 0.817 1.28 1.835 1.68 3.053 0.39 1.218 0.59 2.749 0.59 4.592v17.669h-4.55"/>
    <path id="Fill-49" sketch:type="MSShapeGroup" fill="#DD1F26" d="m544.11 37.589c-4.3 0-7.64-1.219-10.01-3.659-2.38-2.44-3.57-5.906-3.57-10.396 0-4.426 1.15-7.948 3.46-10.567 2.3-2.617 5.31-3.9266 9.03-3.9266 1.68 0 3.16 0.2428 4.45 0.7292s2.41 1.2484 3.38 2.2864 1.71 2.306 2.22 3.806c0.52 1.499 0.78 3.335 0.78 5.507v2.481h-18.7c0 3.161 0.79 5.577 2.36 7.247 1.58 1.67 3.76 2.504 6.55 2.504 1 0 1.98-0.113 2.94-0.34 0.95-0.227 1.82-0.519 2.59-0.875 0.83-0.373 1.52-0.734 2.08-1.083 0.57-0.348 1.03-0.677 1.4-0.985h0.27v4.986c-0.53 0.21-1.19 0.474-1.98 0.79s-1.5 0.563-2.13 0.742c-0.88 0.243-1.69 0.429-2.4 0.559-0.72 0.129-1.63 0.194-2.72 0.194zm5.32-17.241c-0.04-1.232-0.18-2.294-0.44-3.186-0.26-0.891-0.63-1.645-1.11-2.261-0.53-0.681-1.21-1.2-2.04-1.556-0.83-0.357-1.86-0.535-3.08-0.535-1.21 0-2.24 0.182-3.08 0.547-0.85 0.365-1.62 0.895-2.31 1.592-0.68 0.714-1.19 1.505-1.55 2.372-0.35 0.867-0.58 1.876-0.67 3.027h14.28z"/>
    <path id="Fill-50" sketch:type="MSShapeGroup" fill="#DD1F26" d="m580.02 36.638h-4.59v-15.289c0-1.235-0.06-2.384-0.18-3.45s-0.36-1.919-0.7-2.56c-0.37-0.674-0.89-1.174-1.56-1.503-0.66-0.328-1.57-0.493-2.73-0.493-1.14 0-2.31 0.301-3.52 0.902s-2.4 1.382-3.55 2.343v20.05h-4.59v-26.853l4.59 0.0004v2.9806c1.36-1.202 2.71-2.123 4.05-2.764 1.33-0.6411 2.74-0.9616 4.22-0.9616 2.68 0 4.78 0.8693 6.29 2.6086 1.51 1.739 2.27 4.259 2.27 7.56v17.429"/>
    <path id="Fill-51" sketch:type="MSShapeGroup" fill="#DD1F26" d="m594.43 37.113c-2.51 0-4.47-0.702-5.87-2.11-1.4-1.407-2.11-3.629-2.11-6.668v-14.928h-3.1v-3.7623h3.1v-7.7414h4.61v7.7414h8.46v3.7623h-8.46v12.806c0 1.367 0.02 2.42 0.07 3.159 0.05 0.74 0.24 1.431 0.56 2.074 0.28 0.563 0.73 0.985 1.35 1.267 0.62 0.281 1.46 0.421 2.52 0.421 0.75 0 1.48-0.108 2.18-0.325s1.2-0.398 1.51-0.543h0.27v4.076c-0.86 0.241-1.74 0.43-2.63 0.566-0.89 0.137-1.71 0.205-2.46 0.205"/>
    <path id="Fill-52" sketch:type="MSShapeGroup" fill="#676767" d="m258.84 67.328c0 1.708-1.38 3.092-3.09 3.092s-3.09-1.384-3.09-3.092c0-1.709 1.38-3.093 3.09-3.093s3.09 1.384 3.09 3.093"/>
    <path id="Fill-53" sketch:type="MSShapeGroup" fill="#676767" d="m420.14 67.328c0 1.708-1.38 3.092-3.09 3.092s-3.09-1.384-3.09-3.092c0-1.709 1.38-3.093 3.09-3.093s3.09 1.384 3.09 3.093"/>
   </g>
  </g>
 </g>
</svg>
